<?xml version="1.0" encoding="UTF-8"?> <svg xmlns="http://www.w3.org/2000/svg" width="220" height="56.177" viewBox="0 0 220 56.177"><defs><style>.a{fill:#c1d32f;}</style></defs><g transform="translate(-647.105 231.252)"><path class="a" d="M732.92-200.112a6.408,6.408,0,0,0-.055-.715,5.853,5.853,0,0,0-.132-.679,5.571,5.571,0,0,0-.482-1.247,5.568,5.568,0,0,0-.345-.565,6.148,6.148,0,0,0-1.42-1.441q-.282-.207-.593-.391a8.847,8.847,0,0,0-2.1-.883q-.387-.11-.8-.193-.306-.063-.626-.11a13.752,13.752,0,0,0-2.016-.144,12.032,12.032,0,0,0-3.818.568,7.612,7.612,0,0,0-1.629.76,4.462,4.462,0,0,0-2.272,3.851,3.262,3.262,0,0,0,1.17,2.626,4.21,4.21,0,0,0,.339.26,6.587,6.587,0,0,0,1.533.757c.249.089.511.17.783.246a22.594,22.594,0,0,0,2.724.545l.5.071q.506.069,1.032.13l.529.062c.89.1,1.814.2,2.755.3s1.9.234,2.868.384q.483.075.969.159a36.166,36.166,0,0,1,3.833.866l.005,0v-5.222Zm-42.69,20.1a10.276,10.276,0,0,0,2.063.806,10.866,10.866,0,0,0,2.851.373,11.109,11.109,0,0,0,1.478-.1,10.927,10.927,0,0,0,1.418-.285,10.732,10.732,0,0,0,4.8-2.775,10.551,10.551,0,0,0,.912-1.044,10.481,10.481,0,0,0,.77-1.16c0-.05,0-.1,0-.148h.117a1.335,1.335,0,0,1,.767,0h10.226a7.883,7.883,0,0,0,.1,1.248,7.048,7.048,0,0,0,.288,1.164,6.665,6.665,0,0,0,.294.725,6.621,6.621,0,0,0,.591,1.005,8.081,8.081,0,0,0,4.039,2.869,14.094,14.094,0,0,0,4.613.707q.668,0,1.292-.053t1.2-.157a9.088,9.088,0,0,0,2.689-.9,6.126,6.126,0,0,0,1.032-.691,4.939,4.939,0,0,0,.8-.842,4.381,4.381,0,0,0,.375-.6,4.514,4.514,0,0,0,.5-2.106,3.7,3.7,0,0,0-.643-2.206c-.059-.084-.122-.164-.189-.243a3.862,3.862,0,0,0-.609-.57c-.083-.063-.168-.123-.257-.181a5.721,5.721,0,0,0-.569-.326q-.151-.075-.31-.145c-.212-.093-.435-.179-.667-.259a13.3,13.3,0,0,0-1.506-.408c-.4-.086-.823-.162-1.258-.23-.29-.046-.587-.088-.889-.127s-.611-.077-.923-.112q-.7-.079-1.438-.15l-.49-.048-.651-.07c-.656-.071-1.327-.147-2.006-.232q-.68-.085-1.367-.184-.345-.049-.688-.1c-1.148-.182-2.3-.4-3.421-.689q-.337-.086-.669-.179-.665-.187-1.311-.409t-1.264-.483q-.618-.262-1.2-.566-.292-.153-.575-.317a12.5,12.5,0,0,1-1.6-1.1,10.008,10.008,0,0,1-3.322-4.907l-.026,0a10.025,10.025,0,0,0-1.072-2.724q-.24-.419-.517-.811-.158-.223-.328-.438a10.8,10.8,0,0,0-5.778-3.748,10.686,10.686,0,0,0-2.656-.336,10.838,10.838,0,0,0-3.394.534,10.347,10.347,0,0,0-1.037.4,10.465,10.465,0,0,0-2.342,1.46,11.005,11.005,0,0,0-1.574,1.595q-.357.443-.674.928c-.106.162-.207.326-.307.494a13.516,13.516,0,0,0-1.645,4.615q-.054.322-.095.651a16.375,16.375,0,0,0-.125,2.039,16.731,16.731,0,0,0,.123,2.038,14.441,14.441,0,0,0,.935,3.667q.227.56.5,1.085a11.868,11.868,0,0,0,1.251,1.936,11.128,11.128,0,0,0,.744.842c.13.133.263.262.4.388a10.643,10.643,0,0,0,.85.706q.221.164.45.317a10.308,10.308,0,0,0,.946.56m-17.906-4.9V-174.7h5.952a21.425,21.425,0,0,1-5.952-10.213M647.1-174.7h12.673v-55.969H647.1Zm25.219-23.573v-32.4h63.355v18.106a24.961,24.961,0,0,0-7.356-1.992,32.947,32.947,0,0,0-3.964-.233q-.583,0-1.153.019t-1.126.056a29.641,29.641,0,0,0-3.207.385q-.481.085-.947.186-.933.2-1.81.463-.439.13-.862.276-.565.193-1.1.413-.861.351-1.652.766a16.817,16.817,0,0,0-1.505.891,15.074,15.074,0,0,0-1.353,1.013q-.36-.257-.736-.5-.749-.487-1.552-.916-.4-.214-.815-.413-.827-.4-1.7-.736a25.968,25.968,0,0,0-6.645-1.566q-1.017-.106-2.069-.142-.526-.018-1.059-.018c-11.581,0-20.129,6.329-22.737,16.342" transform="translate(0 -0.379)"></path><g transform="translate(749.171 -231.252)"><path class="a" d="M935.084-230.165h3.337V-218.1H944.6v3.08h-9.519Z" transform="translate(-935.084 230.55)"></path><path class="a" d="M966.892-230.165h10.29v3.08h-6.952v2.824H976.8v3.081h-6.567v3.08h7.338v3.08H966.892Z" transform="translate(-955.619 230.55)"></path><path class="a" d="M1014.975-216.791a12.088,12.088,0,0,1-3.08,1.113,15.686,15.686,0,0,1-3.273.342,9.33,9.33,0,0,1-3.273-.556,7.488,7.488,0,0,1-2.588-1.594,7.218,7.218,0,0,1-1.7-2.514,8.559,8.559,0,0,1-.61-3.295,8.56,8.56,0,0,1,.61-3.294,7.223,7.223,0,0,1,1.7-2.513,7.488,7.488,0,0,1,2.588-1.594,9.33,9.33,0,0,1,3.273-.556,12.119,12.119,0,0,1,3.348.439,6.562,6.562,0,0,1,2.684,1.508l-2.353,2.567a4.7,4.7,0,0,0-1.541-1.07,5.487,5.487,0,0,0-2.139-.364,4.958,4.958,0,0,0-1.936.364,4.345,4.345,0,0,0-1.486,1.016,4.462,4.462,0,0,0-.952,1.551,5.578,5.578,0,0,0-.331,1.947,5.553,5.553,0,0,0,.331,1.958,4.481,4.481,0,0,0,.952,1.54,4.345,4.345,0,0,0,1.486,1.016,4.958,4.958,0,0,0,1.936.363,6.379,6.379,0,0,0,1.883-.246,7.093,7.093,0,0,0,1.262-.5v-2.46h-2.717v-3.08h5.926Z" transform="translate(-977.283 231.252)"></path><path class="a" d="M1052.523-225.758l-1.84,4.706h3.7Zm-1.284-4.407H1054l6.589,15.146h-3.765l-1.3-3.209h-5.883l-1.262,3.209h-3.68Z" transform="translate(-1005.845 230.55)"></path><path class="a" d="M1093.584-230.165h3.337V-218.1h6.182v3.08h-9.519Z" transform="translate(-1037.408 230.55)"></path></g><g transform="translate(748.23 -211.156)"><path class="a" d="M943.146-170.231a3.285,3.285,0,0,0-1.209-.92,4.027,4.027,0,0,0-1.658-.321,4.181,4.181,0,0,0-1.744.364,4.175,4.175,0,0,0-1.39,1.016,4.731,4.731,0,0,0-.92,1.551,5.578,5.578,0,0,0-.332,1.946,5.555,5.555,0,0,0,.332,1.957,4.866,4.866,0,0,0,.909,1.54,4.124,4.124,0,0,0,1.359,1.016,3.921,3.921,0,0,0,1.679.363,3.759,3.759,0,0,0,1.818-.428,3.615,3.615,0,0,0,1.3-1.2l2.781,2.075a5.792,5.792,0,0,1-2.439,1.989,7.549,7.549,0,0,1-3.038.642,9.341,9.341,0,0,1-3.273-.556,7.485,7.485,0,0,1-2.588-1.594,7.225,7.225,0,0,1-1.7-2.513,8.563,8.563,0,0,1-.61-3.295,8.561,8.561,0,0,1,.61-3.294,7.227,7.227,0,0,1,1.7-2.514A7.5,7.5,0,0,1,937.327-174a9.333,9.333,0,0,1,3.273-.556,8.03,8.03,0,0,1,1.337.118,7.217,7.217,0,0,1,1.369.374,6.109,6.109,0,0,1,1.294.684,5.167,5.167,0,0,1,1.113,1.048Z" transform="translate(-932.428 174.552)"></path><path class="a" d="M978.8-167.2h1.968q.45,0,.952-.032a2.977,2.977,0,0,0,.909-.192,1.58,1.58,0,0,0,.674-.5,1.534,1.534,0,0,0,.268-.963,1.6,1.6,0,0,0-.236-.92,1.577,1.577,0,0,0-.6-.524,2.677,2.677,0,0,0-.834-.246,6.8,6.8,0,0,0-.921-.064H978.8Zm-3.337-6.268h5.861a10.338,10.338,0,0,1,2.193.225,5.206,5.206,0,0,1,1.818.749,3.737,3.737,0,0,1,1.241,1.412,4.784,4.784,0,0,1,.46,2.214,4.447,4.447,0,0,1-.834,2.728,3.758,3.758,0,0,1-2.438,1.423l3.85,6.4h-4l-3.166-6.054H978.8v6.054h-3.337Z" transform="translate(-960.211 173.85)"></path><path class="a" d="M1014.334-173.465h10.29v3.08h-6.952v2.824h6.567v3.081h-6.567v3.08h7.338v3.08h-10.675Z" transform="translate(-985.305 173.85)"></path><path class="a" d="M1054.73-161.4h1.733a9.319,9.319,0,0,0,2.15-.235,4.59,4.59,0,0,0,1.722-.781,3.742,3.742,0,0,0,1.145-1.433,5.081,5.081,0,0,0,.417-2.172,4.233,4.233,0,0,0-.417-1.936,3.872,3.872,0,0,0-1.123-1.358,4.926,4.926,0,0,0-1.658-.8,7.375,7.375,0,0,0-2-.267h-1.968Zm-3.337-12.065h5.006a14.315,14.315,0,0,1,3.455.406,7.913,7.913,0,0,1,2.856,1.316,6.45,6.45,0,0,1,1.936,2.364,7.931,7.931,0,0,1,.716,3.53,7.2,7.2,0,0,1-.7,3.241,6.965,6.965,0,0,1-1.872,2.353,8.267,8.267,0,0,1-2.717,1.444,10.548,10.548,0,0,1-3.23.492h-5.455Z" transform="translate(-1009.229 173.85)"></path><rect class="a" width="3.337" height="15.146" transform="translate(58.144 0.385)"></rect><path class="a" d="M1114.261-170.513h-4.322v-2.952h11.98v2.952H1117.6v12.194h-3.337Z" transform="translate(-1047.026 173.85)"></path></g><g transform="translate(747.909 -191.061)"><path class="a" d="M940.143-113.765a2.382,2.382,0,0,0-1.1-.76,3.968,3.968,0,0,0-1.316-.246,3.447,3.447,0,0,0-.749.086,2.873,2.873,0,0,0-.727.267,1.583,1.583,0,0,0-.557.482,1.216,1.216,0,0,0-.214.727,1.2,1.2,0,0,0,.513,1.048,4.846,4.846,0,0,0,1.294.62q.781.257,1.68.514a6.932,6.932,0,0,1,1.679.727,3.977,3.977,0,0,1,1.294,1.262,3.844,3.844,0,0,1,.514,2.117,4.875,4.875,0,0,1-.471,2.2,4.472,4.472,0,0,1-1.273,1.562,5.406,5.406,0,0,1-1.861.92,8.168,8.168,0,0,1-2.236.3,8.107,8.107,0,0,1-2.738-.449,6.863,6.863,0,0,1-2.353-1.455l2.375-2.61a3.467,3.467,0,0,0,1.294,1.059,3.7,3.7,0,0,0,1.615.374,3.633,3.633,0,0,0,.823-.1,2.692,2.692,0,0,0,.749-.288,1.62,1.62,0,0,0,.534-.492,1.227,1.227,0,0,0,.2-.706,1.283,1.283,0,0,0-.524-1.081,4.848,4.848,0,0,0-1.316-.674q-.791-.278-1.711-.556a7.65,7.65,0,0,1-1.711-.749,4.118,4.118,0,0,1-1.316-1.241,3.549,3.549,0,0,1-.524-2.032,4.548,4.548,0,0,1,.482-2.139,4.643,4.643,0,0,1,1.283-1.54,5.582,5.582,0,0,1,1.85-.931,7.579,7.579,0,0,1,2.161-.31,8.5,8.5,0,0,1,2.481.364,5.728,5.728,0,0,1,2.161,1.219Z" transform="translate(-931.522 117.851)"></path><path class="a" d="M969.935-109.894a5.552,5.552,0,0,0,.332,1.957,4.476,4.476,0,0,0,.952,1.54,4.333,4.333,0,0,0,1.487,1.016,4.95,4.95,0,0,0,1.936.364,4.952,4.952,0,0,0,1.936-.364,4.346,4.346,0,0,0,1.487-1.016,4.494,4.494,0,0,0,.952-1.54,5.558,5.558,0,0,0,.331-1.957,5.583,5.583,0,0,0-.331-1.946,4.471,4.471,0,0,0-.952-1.551,4.346,4.346,0,0,0-1.487-1.016,4.958,4.958,0,0,0-1.936-.364,4.956,4.956,0,0,0-1.936.364,4.333,4.333,0,0,0-1.487,1.016,4.453,4.453,0,0,0-.952,1.551,5.578,5.578,0,0,0-.332,1.946m-3.466,0a8.554,8.554,0,0,1,.61-3.294,7.221,7.221,0,0,1,1.7-2.514,7.5,7.5,0,0,1,2.588-1.594,9.334,9.334,0,0,1,3.273-.556,9.331,9.331,0,0,1,3.273.556A7.505,7.505,0,0,1,980.5-115.7a7.235,7.235,0,0,1,1.7,2.514,8.561,8.561,0,0,1,.609,3.294,8.561,8.561,0,0,1-.609,3.295,7.232,7.232,0,0,1-1.7,2.514,7.5,7.5,0,0,1-2.589,1.594,9.331,9.331,0,0,1-3.273.556,9.334,9.334,0,0,1-3.273-.556,7.486,7.486,0,0,1-2.588-1.594,7.218,7.218,0,0,1-1.7-2.514,8.555,8.555,0,0,1-.61-3.295" transform="translate(-954.083 117.852)"></path><path class="a" d="M1017.532-116.765h3.337V-104.7h6.182v3.08h-9.519Z" transform="translate(-987.048 117.15)"></path><path class="a" d="M1060.542-107.459a7.317,7.317,0,0,1-.406,2.481,5.466,5.466,0,0,1-1.209,1.968,5.527,5.527,0,0,1-2,1.3,7.517,7.517,0,0,1-2.76.471,7.575,7.575,0,0,1-2.781-.471,5.529,5.529,0,0,1-2-1.3,5.463,5.463,0,0,1-1.209-1.968,7.308,7.308,0,0,1-.406-2.481v-9.306h3.337v9.177a3.682,3.682,0,0,0,.225,1.3,3.106,3.106,0,0,0,.631,1.038,2.859,2.859,0,0,0,.974.685,3.052,3.052,0,0,0,1.23.246,2.98,2.98,0,0,0,1.219-.246,2.9,2.9,0,0,0,.963-.685,3.122,3.122,0,0,0,.631-1.038,3.684,3.684,0,0,0,.225-1.3v-9.177h3.338Z" transform="translate(-1006.569 117.15)"></path><path class="a" d="M1092.29-113.813h-4.321v-2.952h11.98v2.952h-4.321v12.194h-3.337Z" transform="translate(-1032.521 117.15)"></path><rect class="a" width="3.337" height="15.146" transform="translate(68.861 0.385)"></rect><path class="a" d="M1144.368-109.894a5.552,5.552,0,0,0,.332,1.957,4.479,4.479,0,0,0,.952,1.54,4.337,4.337,0,0,0,1.487,1.016,4.951,4.951,0,0,0,1.936.364,4.951,4.951,0,0,0,1.936-.364,4.347,4.347,0,0,0,1.487-1.016,4.49,4.49,0,0,0,.952-1.54,5.552,5.552,0,0,0,.332-1.957,5.578,5.578,0,0,0-.332-1.946,4.466,4.466,0,0,0-.952-1.551,4.347,4.347,0,0,0-1.487-1.016,4.957,4.957,0,0,0-1.936-.364,4.957,4.957,0,0,0-1.936.364,4.337,4.337,0,0,0-1.487,1.016,4.456,4.456,0,0,0-.952,1.551,5.578,5.578,0,0,0-.332,1.946m-3.466,0a8.549,8.549,0,0,1,.61-3.294,7.219,7.219,0,0,1,1.7-2.514,7.5,7.5,0,0,1,2.588-1.594,9.333,9.333,0,0,1,3.273-.556,9.333,9.333,0,0,1,3.273.556,7.506,7.506,0,0,1,2.589,1.594,7.235,7.235,0,0,1,1.7,2.514,8.561,8.561,0,0,1,.609,3.294,8.561,8.561,0,0,1-.609,3.295,7.232,7.232,0,0,1-1.7,2.514,7.5,7.5,0,0,1-2.589,1.594,9.333,9.333,0,0,1-3.273.556,9.333,9.333,0,0,1-3.273-.556,7.487,7.487,0,0,1-2.588-1.594,7.216,7.216,0,0,1-1.7-2.514,8.55,8.55,0,0,1-.61-3.295" transform="translate(-1066.693 117.852)"></path><path class="a" d="M1191.6-116.765h4.535l6.439,10.525h.043v-10.525h3.337v15.146h-4.365l-6.61-10.782h-.043v10.782H1191.6Z" transform="translate(-1099.424 117.15)"></path><path class="a" d="M1245.612-113.765a2.382,2.382,0,0,0-1.1-.76,3.967,3.967,0,0,0-1.316-.246,3.448,3.448,0,0,0-.749.086,2.872,2.872,0,0,0-.727.267,1.583,1.583,0,0,0-.556.482,1.215,1.215,0,0,0-.214.727,1.205,1.205,0,0,0,.513,1.048,4.849,4.849,0,0,0,1.294.62q.781.257,1.68.514a6.929,6.929,0,0,1,1.679.727,3.982,3.982,0,0,1,1.294,1.262,3.844,3.844,0,0,1,.514,2.117,4.87,4.87,0,0,1-.471,2.2,4.467,4.467,0,0,1-1.273,1.562,5.4,5.4,0,0,1-1.861.92,8.17,8.17,0,0,1-2.236.3,8.11,8.11,0,0,1-2.738-.449,6.858,6.858,0,0,1-2.353-1.455l2.375-2.61a3.464,3.464,0,0,0,1.294,1.059,3.7,3.7,0,0,0,1.615.374,3.632,3.632,0,0,0,.823-.1,2.69,2.69,0,0,0,.749-.288,1.624,1.624,0,0,0,.534-.492,1.227,1.227,0,0,0,.2-.706,1.282,1.282,0,0,0-.524-1.081,4.845,4.845,0,0,0-1.316-.674q-.791-.278-1.711-.556a7.643,7.643,0,0,1-1.711-.749,4.119,4.119,0,0,1-1.316-1.241,3.548,3.548,0,0,1-.524-2.032,4.549,4.549,0,0,1,.482-2.139,4.642,4.642,0,0,1,1.283-1.54,5.582,5.582,0,0,1,1.85-.931,7.579,7.579,0,0,1,2.161-.31,8.5,8.5,0,0,1,2.481.364,5.73,5.73,0,0,1,2.161,1.219Z" transform="translate(-1128.726 117.851)"></path></g></g></svg> 